#!OML:ASF X:\für Bonn\!DataBase\2005_08_10_Bjorn_Final\c3d\bjorn.ASF
:FULLY-SPECIFIED
:DEGREES
46
root -11.8096 18.7808 -1.15036 1890.1 -85.6245 -451.277
lowerback -4.96361 3.81779 4.36686
upperback 7.0361 4.69368 -1.13213
thorax 10.7872 2.61922 -2.98289
lowerneck -8.3316 -4.19224 3.48723
upperneck 4.05219 -5.89046 -1.49417
head 2.58853 -2.92571 -1.36097
rclavicle -2.28602e-014 -2.3059e-014
rhumerus -10.6899 0.716075 -86.6412
rradius 66.4326
rwrist -21.0149
rhand -12.1795 8.65084
rfingers 7.12502
rthumb 13.8841 -20.8657
lclavicle -2.28602e-014 -2.3059e-014
lhumerus -34.1964 12.696 80.0765
lradius 19.2159
lwrist -37.5304
lhand -11.724 -5.5876
lfingers 7.12502
lthumb 14.3229 23.8984
rfemur 16.9929 -6.62408 18.8069
rtibia 10.899
rfoot -13.7183 20.7225
rtoes -2.43051
lfemur -29.2846 7.42795 -12.0877
ltibia 19.6402
lfoot -2.31191 -7.47166
ltoes -12.8912
47
root -11.9654 18.76 -1.12299 1891.29 -85.5795 -452.494
lowerback -5.02112 3.91148 4.20199
upperback 7.04376 4.84003 -1.19397
thorax 10.8343 2.68042 -2.93096
lowerneck -8.35772 -4.33376 3.46237
upperneck 4.06287 -6.07934 -1.46628
head 2.59298 -3.01906 -1.35671
rclavicle -1.37161e-014 1.43125e-014
rhumerus -9.84655 0.436428 -86.2687
rradius 67.5725
rwrist -21.3095
rhand -12.4351 8.96371
rfingers 7.12502
rthumb 13.6377 -20.5695
lclavicle -1.37161e-014 1.43125e-014
lhumerus -33.9165 12.6468 80.1071
lradius 19.0708
lwrist -37.5963
lhand -11.8159 -5.50873
lfingers 7.12502
lthumb 14.2344 23.9835
rfemur 17.9439 -6.19698 18.8078
rtibia 10.1202
rfoot -13.2678 20.4776
rtoes -2.59088
lfemur -29.4011 7.31403 -12.0343
ltibia 20.1349
lfoot -1.48737 -7.60929
ltoes -13.7879
48
root -12.121 18.7413 -1.09596 1892.35 -85.5539 -453.599
lowerback -5.03715 4.02262 4.04161
upperback 7.04364 5.01474 -1.295
thorax 10.8546 2.75721 -2.92195
lowerneck -8.34932 -4.49295 3.48117
upperneck 4.06682 -6.29793 -1.39512
head 2.58798 -3.125 -1.34584
rclavicle 2.20651e-014 1.59028e-015
rhumerus -9.02138 0.0449045 -85.931
rradius 68.6627
rwrist -21.5854
rhand -12.8123 9.32673
rfingers 7.12502
rthumb 13.2741 -20.2306
lclavicle 2.20651e-014 1.59028e-015
lhumerus -33.6183 12.5173 80.09
lradius 18.9068
lwrist -37.6682
lhand -11.8841 -5.41273
lfingers 7.12502
lthumb 14.1686 24.0841
rfemur 18.8218 -5.76439 18.7995
rtibia 9.51174
rfoot -12.8408 20.2054
rtoes -2.77528
lfemur -29.5031 7.28092 -12.0362
ltibia 20.7045
lfoot -0.471767 -7.76726
ltoes -14.9843
49
root -12.2754 18.7211 -1.06716 1893.4 -85.5488 -454.699
lowerback -5.05618 4.10695 3.8136
upperback 7.04778 5.15698 -1.36614
thorax 10.8674 2.81119 -2.84816
lowerneck -8.35241 -4.62224 3.48318
upperneck 4.07337 -6.47382 -1.34701
head 2.58715 -3.21076 -1.33822
rclavicle -8.54774e-014 -1.59028e-015
rhumerus -8.192 -0.301883 -85.5648
rradius 69.7794
rwrist -21.9573
rhand -13.1942 9.62162
rfingers 7.12502
rthumb 12.906 -19.9593
lclavicle -8.54774e-014 -1.59028e-015
lhumerus -33.3017 12.5309 80.0798
lradius 18.7016
lwrist -37.8001
lhand -11.9653 -5.32708
lfingers 7.12502
lthumb 14.0904 24.1752
rfemur 19.5799 -5.33034 18.7624
rtibia 9.11045
rfoot -12.4425 19.9904
rtoes -2.95828
lfemur -29.598 7.13069 -12.0207
ltibia 21.3439
lfoot 0.862697 -7.72948
ltoes -15.1075
50
root -12.4311 18.7007 -1.03844 1894.49 -85.5604 -455.836
lowerback -5.09314 4.18562 3.58289
upperback 7.05784 5.29407 -1.46969
thorax 10.9 2.86413 -2.8071
lowerneck -8.34166 -4.74943 3.5327
upperneck 4.03434 -6.65201 -1.29124
head 2.56713 -3.29732 -1.33457
rclavicle 3.93594e-014 4.77083e-015
rhumerus -7.30991 -0.663677 -85.2313
rradius 70.8248
rwrist -22.4068
rhand -13.615 9.9062
rfingers 7.12502
rthumb 12.5003 -19.6999
lclavicle 3.93594e-014 4.77083e-015
lhumerus -32.973 12.7208 79.9449
lradius 18.4604
lwrist -38.0921
lhand -12.052 -5.31316
lfingers 7.12502
lthumb 14.0069 24.1949
rfemur 20.1863 -4.88987 18.7186
rtibia 8.99045
rfoot -12.1805 19.7204
rtoes -3.45141
lfemur -29.6584 7.02516 -12.0501
ltibia 22.0321
lfoot 2.42001 -7.68868
ltoes -14.6434
